{
    "asset" : {
        "generator" : "Khronos glTF Blender I/O v3.3.32",
        "version" : "2.0"
    },
    "scene" : 0,
    "scenes" : [
        {
            "name" : "Scene",
            "nodes" : [
                0
            ]
        }
    ],
    "nodes" : [
        {
            "mesh" : 0,
            "name" : "path91.001",
            "rotation" : [
                0,
                0,
                0.7071068286895752,
                0.7071068286895752
            ],
            "scale" : [
                16.942167282104492,
                1,
                16.942167282104492
            ],
            "translation" : [
                0,
                0,
                2.476839542388916
            ]
        }
    ],
    "materials" : [
        {
            "doubleSided" : true,
            "name" : "SVGMat.003",
            "pbrMetallicRoughness" : {
                "baseColorFactor" : [
                    0,
                    0,
                    0,
                    1
                ],
                "metallicFactor" : 0,
                "roughnessFactor" : 0.5
            }
        }
    ],
    "meshes" : [
        {
            "name" : "path91.001",
            "primitives" : [
                {
                    "attributes" : {
                        "POSITION" : 0,
                        "NORMAL" : 1,
                        "TEXCOORD_0" : 2
                    },
                    "indices" : 3,
                    "material" : 0
                }
            ]
        }
    ],
    "accessors" : [
        {
            "bufferView" : 0,
            "componentType" : 5126,
            "count" : 36434,
            "max" : [
                0.19731254875659943,
                0.20000001788139343,
                -0.06400834023952484
            ],
            "min" : [
                0.012244938872754574,
                -0.20000001788139343,
                -0.23107334971427917
            ],
            "type" : "VEC3"
        },
        {
            "bufferView" : 1,
            "componentType" : 5126,
            "count" : 36434,
            "type" : "VEC3"
        },
        {
            "bufferView" : 2,
            "componentType" : 5126,
            "count" : 36434,
            "type" : "VEC2"
        },
        {
            "bufferView" : 3,
            "componentType" : 5123,
            "count" : 66480,
            "type" : "SCALAR"
        }
    ],
    "bufferViews" : [
        {
            "buffer" : 0,
            "byteLength" : 437208,
            "byteOffset" : 0,
            "target" : 34962
        },
        {
            "buffer" : 0,
            "byteLength" : 437208,
            "byteOffset" : 437208,
            "target" : 34962
        },
        {
            "buffer" : 0,
            "byteLength" : 291472,
            "byteOffset" : 874416,
            "target" : 34962
        },
        {
            "buffer" : 0,
            "byteLength" : 132960,
            "byteOffset" : 1165888,
            "target" : 34963
        }
    ],
    "buffers" : [
        {
            "byteLength" : 1298848,
            "uri" : "data:application/octet-stream;base64,"
        }
    ]
}
